<svg xmlns="http://www.w3.org/2000/svg" xmlns:xlink="http://www.w3.org/1999/xlink" width="500" zoomAndPan="magnify" viewBox="0 0 375 374.999991" height="500" preserveAspectRatio="xMidYMid meet" version="1.0"><defs><g/><clipPath id="2b4a4f20aa"><path d="M 100.757812 156.359375 L 145 156.359375 L 145 170 L 100.757812 170 Z M 100.757812 156.359375 " clip-rule="nonzero"/></clipPath><clipPath id="2e32438a82"><path d="M 107.523438 156.359375 L 137.890625 156.359375 C 141.625 156.359375 144.652344 159.386719 144.652344 163.121094 C 144.652344 166.855469 141.625 169.882812 137.890625 169.882812 L 107.523438 169.882812 C 103.785156 169.882812 100.757812 166.855469 100.757812 163.121094 C 100.757812 159.386719 103.785156 156.359375 107.523438 156.359375 " clip-rule="nonzero"/></clipPath><clipPath id="1f412f1ac3"><path d="M 121 149 L 124 149 L 124 187.636719 L 121 187.636719 Z M 121 149 " clip-rule="nonzero"/></clipPath><clipPath id="e7f049c811"><path d="M 86.289062 141.136719 L 159 141.136719 L 159 161 L 86.289062 161 Z M 86.289062 141.136719 " clip-rule="nonzero"/></clipPath></defs><g clip-path="url(#2b4a4f20aa)"><g clip-path="url(#2e32438a82)"><path fill="#c1ff72" d="M 100.757812 156.359375 L 144.488281 156.359375 L 144.488281 169.476562 L 100.757812 169.476562 Z M 100.757812 156.359375 " fill-opacity="1" fill-rule="nonzero"/></g></g><g clip-path="url(#1f412f1ac3)"><path fill="#000000" d="M 123.972656 186.300781 L 123.972656 150.964844 C 123.972656 150.207031 123.394531 149.625 122.640625 149.625 C 121.929688 149.625 121.355469 150.207031 121.355469 150.964844 L 121.355469 186.300781 C 121.355469 187.054688 121.929688 187.636719 122.640625 187.636719 C 123.394531 187.636719 123.972656 187.054688 123.972656 186.300781 " fill-opacity="1" fill-rule="nonzero"/></g><path fill="#000000" d="M 141.070312 176.960938 L 141.070312 158.449219 C 141.070312 157.738281 140.496094 157.113281 139.742188 157.113281 C 139.03125 157.113281 138.453125 157.738281 138.453125 158.449219 L 138.453125 176.960938 C 138.453125 177.675781 139.03125 178.296875 139.742188 178.296875 C 140.496094 178.296875 141.070312 177.675781 141.070312 176.960938 " fill-opacity="1" fill-rule="nonzero"/><path fill="#000000" d="M 106.828125 176.960938 L 106.828125 158.449219 C 106.828125 157.738281 106.25 157.113281 105.539062 157.113281 C 104.785156 157.113281 104.210938 157.738281 104.210938 158.449219 L 104.210938 176.960938 C 104.210938 177.675781 104.785156 178.296875 105.539062 178.296875 C 106.25 178.296875 106.828125 177.675781 106.828125 176.960938 " fill-opacity="1" fill-rule="nonzero"/><g clip-path="url(#e7f049c811)"><path fill="#000000" d="M 158.097656 158.023438 L 123.21875 141.316406 C 122.863281 141.136719 122.464844 141.136719 122.109375 141.316406 L 87.230469 158.023438 C 86.5625 158.335938 86.296875 159.140625 86.609375 159.808594 C 86.917969 160.429688 87.71875 160.742188 88.382812 160.429688 L 122.640625 143.988281 L 156.941406 160.429688 C 157.609375 160.742188 158.40625 160.429688 158.71875 159.808594 C 159.027344 159.140625 158.761719 158.335938 158.097656 158.023438 " fill-opacity="1" fill-rule="nonzero"/></g><g fill="#000000" fill-opacity="1"><g transform="translate(174.141045, 172.683985)"><g><path d="M 0.828125 -12.136719 L 0.828125 -10.839844 L 7.261719 -10.839844 L 1.050781 0 L 2.570312 0 L 8.898438 -11.285156 L 8.898438 -12.136719 Z M 0.828125 -12.136719 "/></g></g></g><g fill="#000000" fill-opacity="1"><g transform="translate(189.826658, 172.683985)"><g/></g></g><g fill="#000000" fill-opacity="1"><g transform="translate(200.962429, 172.683985)"><g><path d="M 8.796875 0 L 10.214844 0 L 5.824219 -12.136719 L 4.390625 -12.136719 L 0 0 L 1.414062 0 L 2.40625 -2.832031 L 7.808594 -2.832031 Z M 2.832031 -4.066406 L 5.117188 -10.597656 L 7.382812 -4.066406 Z M 2.832031 -4.066406 "/></g></g></g><g fill="#000000" fill-opacity="1"><g transform="translate(217.436681, 172.683985)"><g><path d="M 6.390625 -5.542969 C 7.988281 -5.765625 9.203125 -7.101562 9.203125 -8.738281 C 9.203125 -10.640625 7.6875 -12.136719 5.824219 -12.136719 L 1.476562 -12.136719 L 1.476562 0 L 2.769531 0 L 2.769531 -5.480469 L 5.058594 -5.480469 L 8.496094 0 L 9.972656 0 Z M 2.769531 -6.714844 L 2.769531 -10.839844 L 5.746094 -10.839844 C 6.957031 -10.839844 7.910156 -9.992188 7.910156 -8.777344 C 7.910156 -7.542969 6.976562 -6.714844 5.746094 -6.714844 Z M 2.769531 -6.714844 "/></g></g></g><g fill="#000000" fill-opacity="1"><g transform="translate(233.850265, 172.683985)"><g><path d="M 8.191406 -12.136719 L 0.183594 -12.136719 L 0.183594 -10.839844 L 3.539062 -10.839844 L 3.539062 0 L 4.835938 0 L 4.835938 -10.839844 L 8.191406 -10.839844 Z M 8.191406 -12.136719 "/></g></g></g><g fill="#000000" fill-opacity="1"><g transform="translate(248.484357, 172.683985)"><g><path d="M 4.53125 0.160156 C 6.59375 0.160156 8.273438 -1.070312 8.273438 -3.195312 C 8.273438 -7.320312 2.367188 -6.3125 2.367188 -9.203125 C 2.367188 -10.417969 3.359375 -11.003906 4.492188 -11.003906 C 5.421875 -11.003906 6.191406 -10.621094 6.675781 -9.929688 L 7.6875 -10.78125 C 7.019531 -11.628906 5.84375 -12.296875 4.449219 -12.296875 C 2.589844 -12.296875 1.070312 -11.085938 1.070312 -9.101562 C 1.070312 -5.199219 6.976562 -6.167969 6.976562 -3.15625 C 6.976562 -1.859375 5.90625 -1.132812 4.550781 -1.132812 C 3.175781 -1.132812 2.183594 -1.882812 1.757812 -2.992188 L 0.585938 -2.304688 C 1.214844 -0.808594 2.730469 0.160156 4.53125 0.160156 Z M 4.53125 0.160156 "/></g></g></g><g fill="#000000" fill-opacity="1"><g transform="translate(263.596456, 172.683985)"><g/></g></g><g fill="#000000" fill-opacity="1"><g transform="translate(164.075345, 185.132806)"><g><path d="M 2.953125 -2.558594 C 3.691406 -2.664062 4.25 -3.28125 4.25 -4.035156 C 4.25 -4.914062 3.550781 -5.605469 2.691406 -5.605469 L 0.683594 -5.605469 L 0.683594 0 L 1.28125 0 L 1.28125 -2.53125 L 2.335938 -2.53125 L 3.925781 0 L 4.605469 0 Z M 1.28125 -3.101562 L 1.28125 -5.007812 L 2.652344 -5.007812 C 3.214844 -5.007812 3.652344 -4.617188 3.652344 -4.054688 C 3.652344 -3.484375 3.222656 -3.101562 2.652344 -3.101562 Z M 1.28125 -3.101562 "/></g></g></g><g fill="#000000" fill-opacity="1"><g transform="translate(170.276152, 185.132806)"><g><path d="M 3.792969 -5.027344 L 3.792969 -5.605469 L 0.730469 -5.605469 L 0.730469 0 L 3.792969 0 L 3.792969 -0.578125 L 1.328125 -0.578125 L 1.328125 -2.511719 L 3.476562 -2.511719 L 3.476562 -3.09375 L 1.328125 -3.09375 L 1.328125 -5.027344 Z M 3.792969 -5.027344 "/></g></g></g><g fill="#000000" fill-opacity="1"><g transform="translate(176.140564, 185.132806)"><g><path d="M 4.066406 0 L 4.71875 0 L 2.691406 -5.605469 L 2.027344 -5.605469 L 0 0 L 0.652344 0 L 1.113281 -1.308594 L 3.605469 -1.308594 Z M 1.308594 -1.878906 L 2.363281 -4.894531 L 3.410156 -1.878906 Z M 1.308594 -1.878906 "/></g></g></g><g fill="#000000" fill-opacity="1"><g transform="translate(182.369401, 185.132806)"><g><path d="M 1.28125 -0.597656 L 1.28125 -5.605469 L 0.683594 -5.605469 L 0.683594 0 L 3.363281 0 L 3.363281 -0.597656 Z M 1.28125 -0.597656 "/></g></g></g><g fill="#000000" fill-opacity="1"><g transform="translate(187.327421, 185.132806)"><g/></g></g><g fill="#000000" fill-opacity="1"><g transform="translate(191.089384, 185.132806)"><g><path d="M 3.792969 -5.027344 L 3.792969 -5.605469 L 0.730469 -5.605469 L 0.730469 0 L 3.792969 0 L 3.792969 -0.578125 L 1.328125 -0.578125 L 1.328125 -2.511719 L 3.476562 -2.511719 L 3.476562 -3.09375 L 1.328125 -3.09375 L 1.328125 -5.027344 Z M 3.792969 -5.027344 "/></g></g></g><g fill="#000000" fill-opacity="1"><g transform="translate(196.953796, 185.132806)"><g><path d="M 2.09375 0.0742188 C 3.046875 0.0742188 3.820312 -0.496094 3.820312 -1.476562 C 3.820312 -3.382812 1.09375 -2.914062 1.09375 -4.25 C 1.09375 -4.8125 1.550781 -5.082031 2.074219 -5.082031 C 2.503906 -5.082031 2.859375 -4.90625 3.082031 -4.589844 L 3.550781 -4.980469 C 3.242188 -5.371094 2.699219 -5.679688 2.054688 -5.679688 C 1.195312 -5.679688 0.496094 -5.121094 0.496094 -4.203125 C 0.496094 -2.402344 3.222656 -2.851562 3.222656 -1.457031 C 3.222656 -0.859375 2.726562 -0.523438 2.101562 -0.523438 C 1.46875 -0.523438 1.007812 -0.867188 0.8125 -1.382812 L 0.269531 -1.066406 C 0.5625 -0.375 1.261719 0.0742188 2.09375 0.0742188 Z M 2.09375 0.0742188 "/></g></g></g><g fill="#000000" fill-opacity="1"><g transform="translate(202.556573, 185.132806)"><g><path d="M 3.785156 -5.605469 L 0.0859375 -5.605469 L 0.0859375 -5.007812 L 1.636719 -5.007812 L 1.636719 0 L 2.234375 0 L 2.234375 -5.007812 L 3.785156 -5.007812 Z M 3.785156 -5.605469 "/></g></g></g><g fill="#000000" fill-opacity="1"><g transform="translate(207.935081, 185.132806)"><g><path d="M 4.066406 0 L 4.71875 0 L 2.691406 -5.605469 L 2.027344 -5.605469 L 0 0 L 0.652344 0 L 1.113281 -1.308594 L 3.605469 -1.308594 Z M 1.308594 -1.878906 L 2.363281 -4.894531 L 3.410156 -1.878906 Z M 1.308594 -1.878906 "/></g></g></g><g fill="#000000" fill-opacity="1"><g transform="translate(214.163916, 185.132806)"><g><path d="M 3.785156 -5.605469 L 0.0859375 -5.605469 L 0.0859375 -5.007812 L 1.636719 -5.007812 L 1.636719 0 L 2.234375 0 L 2.234375 -5.007812 L 3.785156 -5.007812 Z M 3.785156 -5.605469 "/></g></g></g><g fill="#000000" fill-opacity="1"><g transform="translate(219.542422, 185.132806)"><g><path d="M 3.792969 -5.027344 L 3.792969 -5.605469 L 0.730469 -5.605469 L 0.730469 0 L 3.792969 0 L 3.792969 -0.578125 L 1.328125 -0.578125 L 1.328125 -2.511719 L 3.476562 -2.511719 L 3.476562 -3.09375 L 1.328125 -3.09375 L 1.328125 -5.027344 Z M 3.792969 -5.027344 "/></g></g></g><g fill="#000000" fill-opacity="1"><g transform="translate(225.406832, 185.132806)"><g/></g></g><g fill="#000000" fill-opacity="1"><g transform="translate(229.168791, 185.132806)"><g><path d="M 4.066406 0 L 4.71875 0 L 2.691406 -5.605469 L 2.027344 -5.605469 L 0 0 L 0.652344 0 L 1.113281 -1.308594 L 3.605469 -1.308594 Z M 1.308594 -1.878906 L 2.363281 -4.894531 L 3.410156 -1.878906 Z M 1.308594 -1.878906 "/></g></g></g><g fill="#000000" fill-opacity="1"><g transform="translate(235.397627, 185.132806)"><g><path d="M 3.355469 -2.972656 L 3.355469 -2.410156 L 5.605469 -2.410156 C 5.429688 -1.328125 4.496094 -0.523438 3.363281 -0.523438 C 2.101562 -0.523438 1.082031 -1.53125 1.082031 -2.804688 C 1.082031 -4.074219 2.101562 -5.082031 3.363281 -5.082031 C 4.214844 -5.082031 4.960938 -4.625 5.34375 -3.933594 L 5.859375 -4.222656 C 5.371094 -5.09375 4.4375 -5.679688 3.363281 -5.679688 C 1.765625 -5.679688 0.484375 -4.390625 0.484375 -2.804688 C 0.484375 -1.214844 1.765625 0.0742188 3.363281 0.0742188 C 4.953125 0.0742188 6.242188 -1.214844 6.242188 -2.804688 L 6.242188 -2.972656 Z M 3.355469 -2.972656 "/></g></g></g><g fill="#000000" fill-opacity="1"><g transform="translate(243.626121, 185.132806)"><g><path d="M 3.792969 -5.027344 L 3.792969 -5.605469 L 0.730469 -5.605469 L 0.730469 0 L 3.792969 0 L 3.792969 -0.578125 L 1.328125 -0.578125 L 1.328125 -2.511719 L 3.476562 -2.511719 L 3.476562 -3.09375 L 1.328125 -3.09375 L 1.328125 -5.027344 Z M 3.792969 -5.027344 "/></g></g></g><g fill="#000000" fill-opacity="1"><g transform="translate(249.49053, 185.132806)"><g><path d="M 4.710938 -5.605469 L 4.710938 -1 L 1.242188 -5.605469 L 0.683594 -5.605469 L 0.683594 0 L 1.28125 0 L 1.28125 -4.605469 L 4.738281 0 L 5.296875 0 L 5.296875 -5.605469 Z M 4.710938 -5.605469 "/></g></g></g><g fill="#000000" fill-opacity="1"><g transform="translate(256.98083, 185.132806)"><g><path d="M 3.335938 0.0742188 C 4.410156 0.0742188 5.34375 -0.515625 5.839844 -1.382812 L 5.324219 -1.671875 C 4.941406 -0.980469 4.195312 -0.523438 3.335938 -0.523438 C 2.074219 -0.523438 1.054688 -1.53125 1.054688 -2.804688 C 1.054688 -4.074219 2.074219 -5.082031 3.335938 -5.082031 C 4.195312 -5.082031 4.941406 -4.625 5.324219 -3.933594 L 5.839844 -4.222656 C 5.34375 -5.09375 4.410156 -5.679688 3.335938 -5.679688 C 1.746094 -5.679688 0.457031 -4.390625 0.457031 -2.804688 C 0.457031 -1.214844 1.746094 0.0742188 3.335938 0.0742188 Z M 3.335938 0.0742188 "/></g></g></g><g fill="#000000" fill-opacity="1"><g transform="translate(264.639326, 185.132806)"><g><path d="M 4.523438 -5.605469 L 3.785156 -5.605469 L 2.269531 -3.28125 L 0.757812 -5.605469 L 0.0078125 -5.605469 L 1.972656 -2.652344 L 1.972656 0 L 2.570312 0 L 2.570312 -2.664062 Z M 4.523438 -5.605469 "/></g></g></g></svg>