<svg xmlns="http://www.w3.org/2000/svg" xmlns:xlink="http://www.w3.org/1999/xlink" width="500" zoomAndPan="magnify" viewBox="0 0 375 374.999991" height="500" preserveAspectRatio="xMidYMid meet" version="1.0"><defs><clipPath id="66d3660416"><path d="M 165.554688 187.71875 L 210 187.71875 L 210 201 L 165.554688 201 Z M 165.554688 187.71875 " clip-rule="nonzero"/></clipPath><clipPath id="9c9ceca6ef"><path d="M 172.316406 187.71875 L 202.683594 187.71875 C 206.417969 187.71875 209.445312 190.746094 209.445312 194.480469 C 209.445312 198.214844 206.417969 201.242188 202.683594 201.242188 L 172.316406 201.242188 C 168.582031 201.242188 165.554688 198.214844 165.554688 194.480469 C 165.554688 190.746094 168.582031 187.71875 172.316406 187.71875 " clip-rule="nonzero"/></clipPath><clipPath id="8f9b8b7d79"><path d="M 186 180 L 189 180 L 189 218.996094 L 186 218.996094 Z M 186 180 " clip-rule="nonzero"/></clipPath><clipPath id="a38e01bded"><path d="M 151.082031 172.496094 L 223.832031 172.496094 L 223.832031 192 L 151.082031 192 Z M 151.082031 172.496094 " clip-rule="nonzero"/></clipPath></defs><g clip-path="url(#66d3660416)"><g clip-path="url(#9c9ceca6ef)"><path fill="#c1ff72" d="M 165.554688 187.71875 L 209.28125 187.71875 L 209.28125 200.835938 L 165.554688 200.835938 Z M 165.554688 187.71875 " fill-opacity="1" fill-rule="nonzero"/></g></g><g clip-path="url(#8f9b8b7d79)"><path fill="#000000" d="M 188.765625 217.65625 L 188.765625 182.320312 C 188.765625 181.566406 188.1875 180.984375 187.433594 180.984375 C 186.726562 180.984375 186.148438 181.566406 186.148438 182.320312 L 186.148438 217.65625 C 186.148438 218.414062 186.726562 218.996094 187.433594 218.996094 C 188.1875 218.996094 188.765625 218.414062 188.765625 217.65625 " fill-opacity="1" fill-rule="nonzero"/></g><path fill="#000000" d="M 205.867188 208.320312 L 205.867188 189.808594 C 205.867188 189.09375 205.289062 188.472656 204.535156 188.472656 C 203.824219 188.472656 203.25 189.09375 203.25 189.808594 L 203.25 208.320312 C 203.25 209.035156 203.824219 209.65625 204.535156 209.65625 C 205.289062 209.65625 205.867188 209.035156 205.867188 208.320312 " fill-opacity="1" fill-rule="nonzero"/><path fill="#000000" d="M 171.621094 208.320312 L 171.621094 189.808594 C 171.621094 189.09375 171.042969 188.472656 170.335938 188.472656 C 169.582031 188.472656 169.003906 189.09375 169.003906 189.808594 L 169.003906 208.320312 C 169.003906 209.035156 169.582031 209.65625 170.335938 209.65625 C 171.042969 209.65625 171.621094 209.035156 171.621094 208.320312 " fill-opacity="1" fill-rule="nonzero"/><g clip-path="url(#a38e01bded)"><path fill="#000000" d="M 222.890625 189.382812 L 188.011719 172.675781 C 187.65625 172.496094 187.257812 172.496094 186.902344 172.675781 L 152.023438 189.382812 C 151.359375 189.695312 151.09375 190.5 151.402344 191.167969 C 151.714844 191.789062 152.511719 192.101562 153.179688 191.789062 L 187.433594 175.347656 L 221.738281 191.789062 C 222.402344 192.101562 223.199219 191.789062 223.511719 191.167969 C 223.820312 190.5 223.554688 189.695312 222.890625 189.382812 " fill-opacity="1" fill-rule="nonzero"/></g></svg>